# File created by Blade
# Date/Time:  Wed Jan 21 16:20:01 2015
# Frame Rate: 120.000 fps
#------------------------------------------------------
:FULLY-SPECIFIED
:DEGREES
454
root 19.640278 36.014390 -20.560888 -187.121946 16.803231 -182.122868
Spine 4.148347 25.868089 -6.631570
Head 26.857807 4.030519 4.844337
LeftShoulder -14.017648 -25.572112 7.032103
LeftArm -25.462163 -9.929638 -34.106989
LeftForeArm -12.697569 -0.000000 3.746388
LeftHand -3.612819 -0.000000 10.255817
LeftHandThumb1 -26.253704 0.000000 33.147579
RightShoulder -8.881802 -14.267974 14.556471
RightArm 15.227606 4.699774 59.067010
RightForeArm -35.960874 -0.000000 51.256372
RightHand 1.374778 -0.000000 3.507805
RightHandThumb1 -24.326973 -0.000000 -32.862282
LeftUpLeg -37.473554 -4.977130 -4.837388
LeftLeg 66.294851 -0.000000 -0.000000
LeftFoot 13.064433 23.559630 8.583294
LeftToeBase -158.442260 -0.000000 0.000000
RightUpLeg 10.334890 -2.212701 6.583402
RightLeg 1.359671 -0.000000 -0.000000
RightFoot -17.320218 -11.655794 14.522307
RightToeBase 23.712168 -0.000000 -0.000000
455
root 19.637585 36.006762 -20.565019 -186.919663 16.176015 -182.108198
Spine 4.019822 25.360101 -6.699563
Head 26.743861 3.705260 4.728774
LeftShoulder -13.965350 -25.612197 6.870659
LeftArm -25.253501 -9.149249 -34.616545
LeftForeArm -13.391929 -0.000000 3.934475
LeftHand -3.710933 0.000000 10.608869
LeftHandThumb1 -26.253704 0.000000 33.147579
RightShoulder -9.042054 -14.420317 14.591257
RightArm 14.710165 4.889660 59.666227
RightForeArm -35.774043 0.000000 50.191247
RightHand 1.325401 -0.000000 3.504688
RightHandThumb1 -24.326973 -0.000000 -32.862282
LeftUpLeg -36.388056 -4.887752 -4.562265
LeftLeg 65.371319 -0.000000 -0.000000
LeftFoot 12.401330 23.742401 8.926743
LeftToeBase -157.808323 -0.000000 0.000000
RightUpLeg 10.194609 -2.496358 6.593095
RightLeg 1.267091 -0.000000 -0.000000
RightFoot -17.402402 -11.930623 14.459607
RightToeBase 23.989856 -0.000000 -0.000000
456
root 19.631696 35.999520 -20.576287 -186.722795 15.490948 -182.078989
Spine 3.864220 24.815062 -6.749879
Head 26.704953 3.310831 4.647448
LeftShoulder -13.955629 -25.577103 6.771090
LeftArm -24.944770 -9.179706 -34.865984
LeftForeArm -13.293329 0.000000 3.858387
LeftHand -3.561455 -0.000000 10.785172
LeftHandThumb1 -26.253704 0.000000 33.147579
RightShoulder -9.296946 -14.624352 14.675912
RightArm 14.326957 4.953024 60.136664
RightForeArm -35.574108 -0.000000 48.993206
RightHand 1.549343 -0.000000 3.490968
RightHandThumb1 -24.326973 -0.000000 -32.862282
LeftUpLeg -35.288426 -4.888959 -4.293257
LeftLeg 64.430877 -0.000000 -0.000000
LeftFoot 11.823131 23.980865 9.284797
LeftToeBase -157.452034 -0.000000 0.000000
RightUpLeg 10.103557 -2.782120 6.605238
RightLeg 1.102729 -0.000000 -0.000000
RightFoot -17.478897 -12.285097 14.466787
RightToeBase 23.788332 -0.000000 -0.000000
457
root 19.616386 35.990135 -20.591323 -186.507743 14.726592 -182.039128
Spine 3.686439 24.176924 -6.779910
Head 26.673832 2.934997 4.550522
LeftShoulder -14.056179 -25.413256 6.735668
LeftArm -24.484473 -9.916153 -34.963661
LeftForeArm -12.491020 0.000000 3.626600
LeftHand -3.396871 -0.000000 10.770620
LeftHandThumb1 -26.253704 0.000000 33.147579
RightShoulder -9.513659 -14.847311 14.744778
RightArm 13.872383 4.900140 60.500422
RightForeArm -35.299427 0.000000 47.888646
RightHand 1.621525 -0.000000 3.532504
RightHandThumb1 -24.326973 -0.000000 -32.862282
LeftUpLeg -34.216965 -4.996313 -4.062837
LeftLeg 63.484148 -0.000000 -0.000000
LeftFoot 11.272468 24.265823 9.715443
LeftToeBase -156.627675 -0.000000 0.000000
RightUpLeg 10.019959 -3.112302 6.613438
RightLeg 0.929022 -0.000000 -0.000000
RightFoot -17.577647 -12.561260 14.422335
RightToeBase 23.732433 -0.000000 -0.000000
458
root 19.615435 35.980277 -20.593696 -186.275603 14.088299 -181.917225
Spine 3.548852 23.641985 -6.717931
Head 26.584064 2.611943 4.424309
LeftShoulder -14.091622 -25.355293 6.638132
LeftArm -24.177579 -10.051700 -35.223542
LeftForeArm -12.370920 -0.000000 3.673960
LeftHand -3.437776 -0.000000 10.925584
LeftHandThumb1 -26.253704 0.000000 33.147579
RightShoulder -9.619505 -15.006864 14.782451
RightArm 13.338345 4.904872 60.895568
RightForeArm -35.165961 -0.000000 46.830478
RightHand 1.685893 -0.000000 3.579728
RightHandThumb1 -24.326973 -0.000000 -32.862282
LeftUpLeg -33.212160 -4.845018 -3.726864
LeftLeg 62.587839 -0.000000 -0.000000
LeftFoot 10.657801 24.439082 9.921159
LeftToeBase -155.975677 -0.000000 0.000000
RightUpLeg 9.881549 -3.407136 6.728031
RightLeg 0.814258 -0.000000 -0.000000
RightFoot -17.624137 -12.797871 14.468535
RightToeBase 23.644054 -0.000000 -0.000000
459
root 19.598457 35.973497 -20.614221 -186.083274 13.446359 -181.915919
Spine 3.363465 23.105574 -6.766145
Head 26.572357 2.303985 4.278832
LeftShoulder -14.142247 -25.350564 6.551892
LeftArm -23.936312 -10.000320 -35.498724
LeftForeArm -12.313552 -0.000000 3.710488
LeftHand -3.348092 0.000000 10.879607
LeftHandThumb1 -26.253704 0.000000 33.147579
RightShoulder -9.795934 -15.185761 14.816206
RightArm 12.894995 4.823048 61.273019
RightForeArm -34.975583 -0.000000 45.590703
RightHand 1.800257 -0.000000 3.444292
RightHandThumb1 -24.326973 -0.000000 -32.862282
LeftUpLeg -32.137813 -4.779888 -3.536513
LeftLeg 61.635277 -0.000000 -0.000000
LeftFoot 9.986741 24.559902 10.225751
LeftToeBase -155.623613 -0.000000 0.000000
RightUpLeg 9.819594 -3.374655 6.754714
RightLeg 0.624528 -0.000000 -0.000000
RightFoot -17.799905 -13.333637 14.595839
RightToeBase 24.212081 -0.000000 -0.000000
460
root 19.577797 35.964606 -20.621170 -185.839310 12.840711 -181.896126
Spine 3.151233 22.613813 -6.789961
Head 26.532332 2.007973 4.137692
LeftShoulder -14.174493 -25.334032 6.473215
LeftArm -23.689559 -10.144618 -35.761684
LeftForeArm -12.225836 -0.000000 3.751889
LeftHand -3.275850 -0.000000 10.888160
LeftHandThumb1 -26.253704 0.000000 33.147579
RightShoulder -9.988690 -15.347676 14.843517
RightArm 12.499017 4.731565 61.625700
RightForeArm -34.820525 -0.000000 44.343833
RightHand 1.881548 -0.000000 3.513134
RightHandThumb1 -24.326973 -0.000000 -32.862282
LeftUpLeg -31.153968 -4.576418 -3.357373
LeftLeg 60.643713 -0.000000 -0.000000
LeftFoot 9.374384 24.630395 10.585690
LeftToeBase -155.345489 -0.000000 0.000000
RightUpLeg 9.673984 -3.287121 6.800278
RightLeg 0.449261 -0.000000 -0.000000
RightFoot -17.882962 -13.862595 14.685493
RightToeBase 22.906886 -0.000000 -0.000000
